<svg xmlns="http://www.w3.org/2000/svg" xmlns:xlink="http://www.w3.org/1999/xlink" viewBox="0 0 400 400" shape-rendering="geometricPrecision" text-rendering="geometricPrecision" cached="false"><rect width="107.339037" height="160.664721" rx="0" ry="0" transform="translate(65.439276 118.883877)" fill="#6e2eef" stroke-width="0"/><path d="M119.626517,156.022075c0,0,0-91.658867,122.756957-91.658867s132.689148,91.658867,132.689148,91.658867h-255.446105Z" transform="translate(-54.18724-37.138198)" fill="#925dfe" stroke-linecap="round"/><path d="M119.626517,156.022075c0,0,0-91.658867,122.756957-91.658867s132.689148,91.658867,132.689148,91.658867h-255.446105Z" transform="matrix(.535847-.41865 0.492529 0.630409 56.733635 313.635058)" fill="#c9adff" stroke-linecap="round"/><path d="M119.626517,316.686796c0,54.694418,53.669522,93.226392,107.339037,93.226392c0-27.967918,0-93.226392,0-93.226392h-107.339037Z" transform="translate(-54.187241-37.138198)" fill="#491ba5"/><ellipse rx="36.479166" ry="36.479166" transform="translate(229.641501 167.590187)" fill="#6e2eef" stroke-width="0"/></svg>
